<svg width="711" height="436" viewBox="0 0 711 436" fill="none" xmlns="http://www.w3.org/2000/svg">
<g filter="url(#filter0_dd_4736_2464)">
<path d="M305.125 141.794C321.335 134.59 373.417 84.3834 397.432 60.1808C401.185 61.8693 411.616 67.0475 423.323 74.252C437.958 83.2576 447.526 91.1376 489.74 60.1808C517.023 39.0126 514.821 45.7575 513.362 48.2156C516.15 45.0924 529.238 32.514 543.211 23.0326C558.97 12.3384 634.392 19.0927 663.661 17.967C692.929 16.8413 671.54 24.7212 685.049 33.7268C695.856 40.9313 705.124 65.434 707 65.8093C703.623 69.374 707 65.8093 704.186 80.4434C701.934 87.7605 699.683 87.1976 694.054 91.1376C688.426 95.0775 691.803 98.4546 685.049 106.897C678.295 115.34 679.42 113.652 671.54 118.154C663.661 122.657 661.972 126.597 654.092 130.537C646.212 134.477 634.392 146.297 618.07 158.117C601.747 169.937 613.567 164.871 609.064 170.499C604.561 176.128 594.993 170.499 588.801 170.499C582.61 170.499 579.233 177.254 572.479 184.571C567.075 190.424 567.226 187.01 567.976 184.571C565.349 185.884 555.256 191.888 535.894 205.396C525.987 211.25 526.137 207.835 527.451 205.396C524.824 205.021 518.22 208.098 512.817 223.407C521.822 230.724 494.805 229.599 470.603 236.916C446.4 244.233 456.532 236.916 447.526 236.916C438.52 236.916 417.695 249.861 402.498 257.741C387.301 265.621 382.798 279.692 360.284 288.135C352.967 288.135 349.027 281.944 329.89 285.321C310.753 288.698 316.382 298.266 314.693 307.835C313.005 317.403 305.125 310.649 275.294 323.032C245.463 335.415 260.097 326.409 249.403 332.6C238.709 338.792 235.331 346.672 235.331 354.551V361.869C231.767 363.557 223.512 366.934 219.009 366.934C213.38 366.934 210.566 366.934 184.675 381.005C171.167 385.508 175.106 381.568 138.521 421.531C122.199 430.536 113.756 427.159 89.5532 425.471C65.3507 423.782 87.8647 417.028 87.8647 412.525C87.8647 408.022 70.4163 418.154 63.0993 415.902C55.922 413.694 36.0825 397.328 23.6998 390.574C13.7936 385.171 7.18948 355.677 4 350.049C7.3771 340.293 15.1444 336.653 28.2026 332.6C44.5252 327.535 49.028 326.972 70.4163 323.032C91.8046 319.092 96.8703 306.146 96.8703 298.266C96.8703 290.387 94.6189 288.135 96.8703 272.375C99.1217 256.616 90.6789 227.91 89.5532 220.03C88.4275 212.15 103.624 235.79 113.756 236.916C123.887 238.042 144.15 235.227 149.215 229.599C154.281 223.97 203.249 179.505 230.266 170.499C257.283 161.494 284.862 150.8 305.125 141.794Z" fill="url(#paint0_linear_4736_2464)"/>
</g>
<g filter="url(#filter1_dd_4736_2464)">
<path d="M307.376 124.909C323.586 117.704 375.669 67.4978 399.684 43.2953C403.436 44.9838 413.868 50.162 425.575 57.3665C440.209 66.3721 449.777 74.252 491.991 43.2953C519.275 22.1271 517.072 28.872 515.613 31.3301C518.402 28.2068 531.489 15.6285 545.462 6.14707C561.222 -4.54717 636.644 2.2072 665.912 1.0815C695.18 -0.0442046 673.792 7.8357 687.3 16.8413C698.107 24.0458 704.561 26.5974 706.437 26.9726C703.06 30.5373 698.332 42.845 706.437 63.5579C704.186 70.8749 701.934 70.3121 696.306 74.252C690.677 78.192 694.054 81.5691 687.3 90.0118C680.546 98.4546 681.672 96.7661 673.792 101.269C665.912 105.772 664.223 109.712 656.343 113.652C648.464 117.592 636.644 129.411 620.321 141.231C603.998 153.051 615.818 147.985 611.315 153.614C606.813 159.242 597.244 153.614 591.053 153.614C584.861 153.614 581.484 160.368 574.73 167.685C569.327 173.539 569.477 170.124 570.227 167.685C567.601 168.999 557.507 175.002 538.145 188.511C528.239 194.364 528.389 190.95 529.702 188.511C527.076 188.135 520.471 191.212 515.068 206.522C524.074 213.839 497.057 212.713 472.854 220.03C448.652 227.347 458.783 220.03 449.777 220.03C440.772 220.03 419.946 232.976 404.749 240.856C389.552 248.736 385.05 262.807 362.536 271.25C355.219 271.25 336.082 267.873 316.945 271.25C297.808 274.627 318.633 281.381 316.945 290.949C315.256 300.518 307.376 293.764 277.545 306.146C247.714 318.529 248.277 315.715 237.583 321.906C226.889 328.098 237.583 329.786 237.583 337.666V344.983C234.018 346.672 225.763 350.049 221.26 350.049C215.632 350.049 212.817 350.049 186.926 364.12C173.418 368.623 177.358 364.683 140.773 404.645C124.45 413.651 116.007 410.274 91.8046 408.585C67.6021 406.897 90.116 400.142 90.116 395.64C90.116 391.137 64.7878 411.962 63.0993 404.645C61.4107 397.328 38.3339 380.443 25.9512 373.688C16.045 368.285 7.18948 355.677 4 350.049C7.3771 340.293 17.3958 319.767 30.454 315.715C46.7766 310.649 51.2794 310.086 72.6677 306.146C94.056 302.206 99.1217 289.261 99.1217 281.381C99.1217 273.501 96.8703 271.25 99.1217 255.49C101.373 239.73 91.2417 227.91 90.116 220.03C88.9903 212.15 105.876 218.905 116.007 220.03C126.138 221.156 146.401 218.342 151.467 212.713C156.532 207.085 205.5 162.62 232.517 153.614C259.534 144.608 287.114 133.914 307.376 124.909Z" fill="white" fill-opacity="0.4" shape-rendering="crispEdges"/>
</g>
<g filter="url(#filter2_dd_4736_2464)">
<path d="M101.936 248.173C101.373 244.983 103.737 237.028 117.696 230.724C135.144 222.844 138.521 219.467 158.784 219.467C179.046 219.467 179.046 209.899 191.429 212.713C203.812 215.527 205.5 219.467 212.255 219.467C219.009 219.467 219.572 222.844 224.637 226.784C229.703 230.724 228.577 218.904 231.392 235.79C234.206 252.675 237.02 265.621 224.637 280.255C212.255 294.889 207.189 297.141 204.938 302.769C202.686 308.398 211.129 307.835 197.058 328.097C182.986 348.36 185.238 350.049 173.981 355.114C162.724 360.18 162.724 377.065 154.844 384.382C146.964 391.699 143.587 393.951 130.641 395.077C117.696 396.202 108.69 395.077 105.313 395.077C102.611 395.077 93.6808 395.077 89.5533 395.077" stroke="white" stroke-width="3"/>
</g>
<g filter="url(#filter3_dd_4736_2464)">
<path d="M209.44 169.374C219.572 172.188 224.074 182.882 243.211 192.451C262.348 202.019 246.588 206.522 270.228 206.522C298.146 209.223 309.628 211.775 311.879 212.713" stroke="white" stroke-width="3"/>
</g>
<g filter="url(#filter4_dd_4736_2464)">
<path d="M300.059 224.533C296.495 228.473 285.088 237.929 267.977 244.233C246.589 252.113 241.523 268.998 240.397 274.064C239.272 279.129 242.086 276.315 245.463 288.698C248.84 301.081 245.463 313.463 256.72 301.081C277.545 288.698 276.42 288.698 284.299 288.698C292.179 288.698 285.988 281.944 295.556 285.321C303.211 288.023 308.502 286.447 310.191 285.321" stroke="white" stroke-width="3"/>
</g>
<g filter="url(#filter5_dd_4736_2464)">
<path d="M154.281 298.266C150.904 299.955 145.163 305.583 149.215 314.589C142.461 341.606 146.964 335.977 140.21 346.671C133.456 357.366 128.39 358.491 128.39 362.431C128.39 366.371 134.018 377.628 128.39 380.442C123.887 382.694 100.998 391.887 90.1161 396.202" stroke="white" stroke-width="3"/>
</g>
<g filter="url(#filter6_dd_4736_2464)">
<path d="M246.026 150.8C246.588 151.738 252.555 153.839 271.917 154.74C296.119 155.865 292.179 151.925 303.436 158.117C314.693 164.308 318.07 167.685 322.573 168.811C346.776 168.811 362.536 164.871 367.601 161.494C372.667 158.117 376.607 167.122 349.59 154.74C324.825 131.775 321.26 119.28 322.573 115.903" stroke="white" stroke-width="3" shape-rendering="crispEdges"/>
</g>
<defs>
<filter id="filter0_dd_4736_2464" x="0" y="16.8855" width="711" height="418.628" filterUnits="userSpaceOnUse" color-interpolation-filters="sRGB">
<feFlood flood-opacity="0" result="BackgroundImageFix"/>
<feColorMatrix in="SourceAlpha" type="matrix" values="0 0 0 0 0 0 0 0 0 0 0 0 0 0 0 0 0 0 127 0" result="hardAlpha"/>
<feOffset dy="4"/>
<feGaussianBlur stdDeviation="2"/>
<feComposite in2="hardAlpha" operator="out"/>
<feColorMatrix type="matrix" values="0 0 0 0 0 0 0 0 0 0 0 0 0 0 0 0 0 0 0.25 0"/>
<feBlend mode="normal" in2="BackgroundImageFix" result="effect1_dropShadow_4736_2464"/>
<feColorMatrix in="SourceAlpha" type="matrix" values="0 0 0 0 0 0 0 0 0 0 0 0 0 0 0 0 0 0 127 0" result="hardAlpha"/>
<feOffset dy="4"/>
<feGaussianBlur stdDeviation="2"/>
<feComposite in2="hardAlpha" operator="out"/>
<feColorMatrix type="matrix" values="0 0 0 0 0 0 0 0 0 0 0 0 0 0 0 0 0 0 0.25 0"/>
<feBlend mode="normal" in2="effect1_dropShadow_4736_2464" result="effect2_dropShadow_4736_2464"/>
<feBlend mode="normal" in="SourceGraphic" in2="effect2_dropShadow_4736_2464" result="shape"/>
</filter>
<filter id="filter1_dd_4736_2464" x="0" y="0" width="710.437" height="418.628" filterUnits="userSpaceOnUse" color-interpolation-filters="sRGB">
<feFlood flood-opacity="0" result="BackgroundImageFix"/>
<feColorMatrix in="SourceAlpha" type="matrix" values="0 0 0 0 0 0 0 0 0 0 0 0 0 0 0 0 0 0 127 0" result="hardAlpha"/>
<feOffset dy="4"/>
<feGaussianBlur stdDeviation="2"/>
<feComposite in2="hardAlpha" operator="out"/>
<feColorMatrix type="matrix" values="0 0 0 0 0 0 0 0 0 0 0 0 0 0 0 0 0 0 0.25 0"/>
<feBlend mode="normal" in2="BackgroundImageFix" result="effect1_dropShadow_4736_2464"/>
<feColorMatrix in="SourceAlpha" type="matrix" values="0 0 0 0 0 0 0 0 0 0 0 0 0 0 0 0 0 0 127 0" result="hardAlpha"/>
<feOffset dy="4"/>
<feGaussianBlur stdDeviation="2"/>
<feComposite in2="hardAlpha" operator="out"/>
<feColorMatrix type="matrix" values="0 0 0 0 0 0 0 0 0 0 0 0 0 0 0 0 0 0 0.25 0"/>
<feBlend mode="normal" in2="effect1_dropShadow_4736_2464" result="effect2_dropShadow_4736_2464"/>
<feBlend mode="normal" in="SourceGraphic" in2="effect2_dropShadow_4736_2464" result="shape"/>
</filter>
<filter id="filter2_dd_4736_2464" x="85.5533" y="210.695" width="153.76" height="194.38" filterUnits="userSpaceOnUse" color-interpolation-filters="sRGB">
<feFlood flood-opacity="0" result="BackgroundImageFix"/>
<feColorMatrix in="SourceAlpha" type="matrix" values="0 0 0 0 0 0 0 0 0 0 0 0 0 0 0 0 0 0 127 0" result="hardAlpha"/>
<feOffset dy="4"/>
<feGaussianBlur stdDeviation="2"/>
<feComposite in2="hardAlpha" operator="out"/>
<feColorMatrix type="matrix" values="0 0 0 0 0 0 0 0 0 0 0 0 0 0 0 0 0 0 0.25 0"/>
<feBlend mode="normal" in2="BackgroundImageFix" result="effect1_dropShadow_4736_2464"/>
<feColorMatrix in="SourceAlpha" type="matrix" values="0 0 0 0 0 0 0 0 0 0 0 0 0 0 0 0 0 0 127 0" result="hardAlpha"/>
<feOffset dy="4"/>
<feGaussianBlur stdDeviation="2"/>
<feComposite in2="hardAlpha" operator="out"/>
<feColorMatrix type="matrix" values="0 0 0 0 0 0 0 0 0 0 0 0 0 0 0 0 0 0 0.25 0"/>
<feBlend mode="normal" in2="effect1_dropShadow_4736_2464" result="effect2_dropShadow_4736_2464"/>
<feBlend mode="normal" in="SourceGraphic" in2="effect2_dropShadow_4736_2464" result="shape"/>
</filter>
<filter id="filter3_dd_4736_2464" x="205.039" y="167.928" width="111.417" height="54.1694" filterUnits="userSpaceOnUse" color-interpolation-filters="sRGB">
<feFlood flood-opacity="0" result="BackgroundImageFix"/>
<feColorMatrix in="SourceAlpha" type="matrix" values="0 0 0 0 0 0 0 0 0 0 0 0 0 0 0 0 0 0 127 0" result="hardAlpha"/>
<feOffset dy="4"/>
<feGaussianBlur stdDeviation="2"/>
<feComposite in2="hardAlpha" operator="out"/>
<feColorMatrix type="matrix" values="0 0 0 0 0 0 0 0 0 0 0 0 0 0 0 0 0 0 0.25 0"/>
<feBlend mode="normal" in2="BackgroundImageFix" result="effect1_dropShadow_4736_2464"/>
<feColorMatrix in="SourceAlpha" type="matrix" values="0 0 0 0 0 0 0 0 0 0 0 0 0 0 0 0 0 0 127 0" result="hardAlpha"/>
<feOffset dy="4"/>
<feGaussianBlur stdDeviation="2"/>
<feComposite in2="hardAlpha" operator="out"/>
<feColorMatrix type="matrix" values="0 0 0 0 0 0 0 0 0 0 0 0 0 0 0 0 0 0 0.25 0"/>
<feBlend mode="normal" in2="effect1_dropShadow_4736_2464" result="effect2_dropShadow_4736_2464"/>
<feBlend mode="normal" in="SourceGraphic" in2="effect2_dropShadow_4736_2464" result="shape"/>
</filter>
<filter id="filter4_dd_4736_2464" x="234.645" y="223.527" width="80.3774" height="92.1824" filterUnits="userSpaceOnUse" color-interpolation-filters="sRGB">
<feFlood flood-opacity="0" result="BackgroundImageFix"/>
<feColorMatrix in="SourceAlpha" type="matrix" values="0 0 0 0 0 0 0 0 0 0 0 0 0 0 0 0 0 0 127 0" result="hardAlpha"/>
<feOffset dy="4"/>
<feGaussianBlur stdDeviation="2"/>
<feComposite in2="hardAlpha" operator="out"/>
<feColorMatrix type="matrix" values="0 0 0 0 0 0 0 0 0 0 0 0 0 0 0 0 0 0 0.25 0"/>
<feBlend mode="normal" in2="BackgroundImageFix" result="effect1_dropShadow_4736_2464"/>
<feColorMatrix in="SourceAlpha" type="matrix" values="0 0 0 0 0 0 0 0 0 0 0 0 0 0 0 0 0 0 127 0" result="hardAlpha"/>
<feOffset dy="4"/>
<feGaussianBlur stdDeviation="2"/>
<feComposite in2="hardAlpha" operator="out"/>
<feColorMatrix type="matrix" values="0 0 0 0 0 0 0 0 0 0 0 0 0 0 0 0 0 0 0.25 0"/>
<feBlend mode="normal" in2="effect1_dropShadow_4736_2464" result="effect2_dropShadow_4736_2464"/>
<feBlend mode="normal" in="SourceGraphic" in2="effect2_dropShadow_4736_2464" result="shape"/>
</filter>
<filter id="filter5_dd_4736_2464" x="85.5631" y="296.925" width="73.3886" height="108.672" filterUnits="userSpaceOnUse" color-interpolation-filters="sRGB">
<feFlood flood-opacity="0" result="BackgroundImageFix"/>
<feColorMatrix in="SourceAlpha" type="matrix" values="0 0 0 0 0 0 0 0 0 0 0 0 0 0 0 0 0 0 127 0" result="hardAlpha"/>
<feOffset dy="4"/>
<feGaussianBlur stdDeviation="2"/>
<feComposite in2="hardAlpha" operator="out"/>
<feColorMatrix type="matrix" values="0 0 0 0 0 0 0 0 0 0 0 0 0 0 0 0 0 0 0.25 0"/>
<feBlend mode="normal" in2="BackgroundImageFix" result="effect1_dropShadow_4736_2464"/>
<feColorMatrix in="SourceAlpha" type="matrix" values="0 0 0 0 0 0 0 0 0 0 0 0 0 0 0 0 0 0 127 0" result="hardAlpha"/>
<feOffset dy="4"/>
<feGaussianBlur stdDeviation="2"/>
<feComposite in2="hardAlpha" operator="out"/>
<feColorMatrix type="matrix" values="0 0 0 0 0 0 0 0 0 0 0 0 0 0 0 0 0 0 0.25 0"/>
<feBlend mode="normal" in2="effect1_dropShadow_4736_2464" result="effect2_dropShadow_4736_2464"/>
<feBlend mode="normal" in="SourceGraphic" in2="effect2_dropShadow_4736_2464" result="shape"/>
</filter>
<filter id="filter6_dd_4736_2464" x="240.739" y="115.359" width="136.013" height="62.9516" filterUnits="userSpaceOnUse" color-interpolation-filters="sRGB">
<feFlood flood-opacity="0" result="BackgroundImageFix"/>
<feColorMatrix in="SourceAlpha" type="matrix" values="0 0 0 0 0 0 0 0 0 0 0 0 0 0 0 0 0 0 127 0" result="hardAlpha"/>
<feOffset dy="4"/>
<feGaussianBlur stdDeviation="2"/>
<feComposite in2="hardAlpha" operator="out"/>
<feColorMatrix type="matrix" values="0 0 0 0 0 0 0 0 0 0 0 0 0 0 0 0 0 0 0.25 0"/>
<feBlend mode="normal" in2="BackgroundImageFix" result="effect1_dropShadow_4736_2464"/>
<feColorMatrix in="SourceAlpha" type="matrix" values="0 0 0 0 0 0 0 0 0 0 0 0 0 0 0 0 0 0 127 0" result="hardAlpha"/>
<feOffset dy="4"/>
<feGaussianBlur stdDeviation="2"/>
<feComposite in2="hardAlpha" operator="out"/>
<feColorMatrix type="matrix" values="0 0 0 0 0 0 0 0 0 0 0 0 0 0 0 0 0 0 0.25 0"/>
<feBlend mode="normal" in2="effect1_dropShadow_4736_2464" result="effect2_dropShadow_4736_2464"/>
<feBlend mode="normal" in="SourceGraphic" in2="effect2_dropShadow_4736_2464" result="shape"/>
</filter>
<linearGradient id="paint0_linear_4736_2464" x1="4" y1="16.8855" x2="323.185" y2="616.065" gradientUnits="userSpaceOnUse">
<stop stop-color="#FEFEFF"/>
<stop offset="1" stop-color="#EAEDF4"/>
</linearGradient>
</defs>
</svg>
