<svg width="96" height="31" viewBox="0 0 96 31" fill="none" xmlns="http://www.w3.org/2000/svg">
<path d="M74.4742 6.49978C82.8289 8.01472 89.2301 10.2064 92.7758 12.766C96.3215 15.3257 96.833 18.1242 94.2383 20.7673C91.6435 23.4104 86.0733 25.7649 78.3124 27.4989C70.5516 29.2329 60.9914 30.2591 50.9789 30.4329C40.9664 30.6067 31.0063 29.9193 22.5021 28.4676C13.9979 27.0158 7.37828 24.8729 3.57594 22.3408C-0.226406 19.8088 -1.01977 17.0151 1.30763 14.3536C3.63503 11.692 8.96587 9.29668 16.549 7.50513L23.1493 9.5831C17.1609 10.9979 12.9511 12.8895 11.1131 14.9913C9.27518 17.0932 9.9017 19.2993 12.9044 21.2989C15.9071 23.2985 21.1347 24.9907 27.8505 26.1372C34.5663 27.2836 42.4318 27.8265 50.3387 27.6892C58.2456 27.552 65.7953 26.7416 71.9241 25.3723C78.0528 24.0029 82.4516 22.1436 84.5007 20.0563C86.5498 17.969 86.1459 15.759 83.3458 13.7377C80.5457 11.7163 75.4907 9.98553 68.893 8.78918L74.4742 6.49978Z" fill="url(#paint0_linear_4740_2768)"/>
<path d="M66.9407 2.57632C73.4725 3.78827 78.4771 5.54163 81.2492 7.58933C84.0213 9.63704 84.4212 11.8759 82.3926 13.9904C80.3639 16.1048 76.009 17.9884 69.9415 19.3756C63.8739 20.7628 56.3996 21.5838 48.5716 21.7228C40.7437 21.8619 32.9567 21.3119 26.308 20.1505C19.6592 18.9891 14.4839 17.2748 11.5111 15.2492C8.53839 13.2235 7.91812 10.9886 9.73772 8.85934C11.5573 6.73009 15.7251 4.81384 21.6537 3.38059L26.8139 5.04297C22.1321 6.17481 18.8408 7.68808 17.4038 9.36955C15.9669 11.051 16.4567 12.8159 18.8043 14.4156C21.1519 16.0153 25.2389 17.3691 30.4894 18.2862C35.7399 19.2034 41.8893 19.6377 48.0711 19.5279C54.2528 19.4181 60.1553 18.7698 64.9469 17.6743C69.7385 16.5788 73.1776 15.0913 74.7796 13.4215C76.3816 11.7517 76.0658 9.9837 73.8767 8.36662C71.6875 6.74954 67.7354 5.36491 62.5772 4.40783L66.9407 2.57632Z" fill="url(#paint1_linear_4740_2768)"/>
<defs>
<linearGradient id="paint0_linear_4740_2768" x1="47.9346" y1="4.31319" x2="47.9346" y2="30.4593" gradientUnits="userSpaceOnUse">
<stop offset="0.0710702" stop-color="#D9D9D9" stop-opacity="0"/>
<stop offset="1" stop-color="white"/>
</linearGradient>
<linearGradient id="paint1_linear_4740_2768" x1="46.1915" y1="0.827042" x2="46.1915" y2="21.7439" gradientUnits="userSpaceOnUse">
<stop offset="0.0710702" stop-color="#D9D9D9" stop-opacity="0"/>
<stop offset="1" stop-color="white"/>
</linearGradient>
</defs>
</svg>
